<svg width="32" height="18" viewBox="0 0 32 18" fill="none" xmlns="http://www.w3.org/2000/svg">
<path d="M0.850195 14.675C2.1502 16.3 4.0502 17.3 6.9002 17.3C10.4252 17.3 13.0252 15.15 13.0252 11.725C13.0252 8.3 10.5002 6.375 7.7002 6.375C6.0752 6.375 4.6752 7.05 3.8752 7.85V2.525H11.9252V0.324999H1.3752V9.475L3.1752 10.05C4.2752 9 5.4752 8.55 6.9252 8.55C9.0752 8.55 10.5002 9.825 10.5002 11.825C10.5002 13.65 9.0502 15.075 6.8752 15.075C4.9252 15.075 3.4252 14.325 2.3252 12.975L0.850195 14.675ZM14.9434 4.225C14.9434 6.55 16.5684 8.325 18.9934 8.325C21.4434 8.325 23.0934 6.55 23.0934 4.225C23.0934 1.875 21.4434 0.0749989 18.9934 0.0749989C16.5684 0.0749989 14.9434 1.875 14.9434 4.225ZM17.4184 17H18.9184L29.5934 0.324999H28.0684L17.4184 17ZM21.3684 4.225C21.3684 5.725 20.3934 6.875 18.9934 6.875C17.6184 6.875 16.6434 5.725 16.6434 4.225C16.6434 2.675 17.6184 1.55 18.9934 1.55C20.3934 1.55 21.3684 2.675 21.3684 4.225ZM23.7684 13.2C23.7684 15.525 25.4184 17.3 27.8434 17.3C30.2684 17.3 31.9184 15.525 31.9184 13.2C31.9184 10.85 30.2684 9.05 27.8434 9.05C25.4184 9.05 23.7684 10.85 23.7684 13.2ZM30.2184 13.2C30.2184 14.725 29.2434 15.85 27.8434 15.85C26.4434 15.85 25.4684 14.725 25.4684 13.2C25.4684 11.65 26.4434 10.525 27.8434 10.525C29.2434 10.525 30.2184 11.65 30.2184 13.2Z" fill="#D7D7D7"/>
</svg>
