<svg width="48" height="18" viewBox="0 0 48 18" fill="none" xmlns="http://www.w3.org/2000/svg">
<path d="M0.671973 14.8309C1.97197 16.4559 3.87197 17.4559 6.72197 17.4559C10.247 17.4559 12.847 15.3059 12.847 11.8809C12.847 8.45588 10.322 6.53088 7.52197 6.53088C5.89697 6.53088 4.49697 7.20588 3.69697 8.00588V2.68088H11.747V0.480882H1.19697V9.63088L2.99697 10.2059C4.09697 9.15588 5.29697 8.70588 6.74697 8.70588C8.89697 8.70588 10.322 9.98088 10.322 11.9809C10.322 13.8059 8.87197 15.2309 6.69697 15.2309C4.74697 15.2309 3.24697 14.4809 2.14697 13.1309L0.671973 14.8309ZM15.1651 8.83088C15.1651 12.9559 17.0651 17.4559 21.6901 17.4559C26.3151 17.4559 28.2151 12.9559 28.2151 8.83088C28.2151 4.70588 26.3151 0.230883 21.6901 0.230883C17.0651 0.230883 15.1651 4.70588 15.1651 8.83088ZM25.6651 8.83088C25.6651 12.0809 24.6401 15.2309 21.6901 15.2309C18.7401 15.2309 17.7151 12.0809 17.7151 8.83088C17.7151 5.58088 18.7401 2.45588 21.6901 2.45588C24.6401 2.45588 25.6651 5.58088 25.6651 8.83088ZM30.1216 4.38088C30.1216 6.70588 31.7466 8.48088 34.1716 8.48088C36.6216 8.48088 38.2716 6.70588 38.2716 4.38088C38.2716 2.03088 36.6216 0.230883 34.1716 0.230883C31.7466 0.230883 30.1216 2.03088 30.1216 4.38088ZM32.5966 17.1559H34.0966L44.7716 0.480882H43.2466L32.5966 17.1559ZM36.5466 4.38088C36.5466 5.88088 35.5716 7.03088 34.1716 7.03088C32.7966 7.03088 31.8216 5.88088 31.8216 4.38088C31.8216 2.83088 32.7966 1.70588 34.1716 1.70588C35.5716 1.70588 36.5466 2.83088 36.5466 4.38088ZM38.9466 13.3559C38.9466 15.6809 40.5966 17.4559 43.0216 17.4559C45.4466 17.4559 47.0966 15.6809 47.0966 13.3559C47.0966 11.0059 45.4466 9.20588 43.0216 9.20588C40.5966 9.20588 38.9466 11.0059 38.9466 13.3559ZM45.3966 13.3559C45.3966 14.8809 44.4216 16.0059 43.0216 16.0059C41.6216 16.0059 40.6466 14.8809 40.6466 13.3559C40.6466 11.8059 41.6216 10.6809 43.0216 10.6809C44.4216 10.6809 45.3966 11.8059 45.3966 13.3559Z" fill="#D7D7D7"/>
</svg>
