<svg width="32" height="37" viewBox="0 0 32 37" fill="none" xmlns="http://www.w3.org/2000/svg">
<path d="M27.0597 18.5029L18.4593 18.4924L18.4523 24.277C18.4598 24.277 18.4659 24.2619 18.4735 24.2619C20.5022 22.2299 23.7885 22.2338 25.8139 24.2708C27.8377 26.2925 27.8337 29.5871 25.805 31.6191C25.7959 31.6343 25.7868 31.6343 25.7777 31.6495C25.7671 31.6495 25.7565 31.6646 25.7473 31.6798C23.7232 33.6815 21.0808 34.6803 18.4397 34.6771C15.7864 34.6739 13.1344 33.6686 11.1136 31.6317C7.5499 28.0595 7.1341 22.5173 9.85889 18.482C10.226 17.9359 10.6492 17.4202 11.1314 16.9349C13.1571 14.9029 15.8116 13.9041 18.4648 13.9073L18.4817 3.48057e-05C8.28663 -0.0123242 0.0124053 8.25217 1.86208e-05 18.4701C-0.0123681 28.688 8.24178 36.9877 18.4368 37C23.7525 37.0065 28.5438 34.7501 31.9162 31.1559L31.9316 18.5088L27.0597 18.5029Z" fill="#999999" fill-opacity="0.3"/>
</svg>
