<svg width="32" height="18" viewBox="0 0 32 18" fill="none" xmlns="http://www.w3.org/2000/svg">
<path d="M0.674023 17H12.424V14.8H4.64902C9.22402 11.275 12.349 8.35 12.349 5.1C12.349 1.775 9.52402 0.0749989 6.52402 0.0749989C4.19902 0.0749989 1.92402 0.999999 0.549023 2.725L2.02402 4.35C3.04902 3.125 4.57402 2.3 6.54902 2.3C8.17402 2.3 9.79902 3.15 9.79902 5.1C9.79902 7.725 6.92402 10.225 0.674023 15.025V17ZM14.8945 4.225C14.8945 6.55 16.5195 8.325 18.9445 8.325C21.3945 8.325 23.0445 6.55 23.0445 4.225C23.0445 1.875 21.3945 0.0749989 18.9445 0.0749989C16.5195 0.0749989 14.8945 1.875 14.8945 4.225ZM17.3695 17H18.8695L29.5445 0.324999H28.0195L17.3695 17ZM21.3195 4.225C21.3195 5.725 20.3445 6.875 18.9445 6.875C17.5695 6.875 16.5945 5.725 16.5945 4.225C16.5945 2.675 17.5695 1.55 18.9445 1.55C20.3445 1.55 21.3195 2.675 21.3195 4.225ZM23.7195 13.2C23.7195 15.525 25.3695 17.3 27.7945 17.3C30.2195 17.3 31.8695 15.525 31.8695 13.2C31.8695 10.85 30.2195 9.05 27.7945 9.05C25.3695 9.05 23.7195 10.85 23.7195 13.2ZM30.1695 13.2C30.1695 14.725 29.1945 15.85 27.7945 15.85C26.3945 15.85 25.4195 14.725 25.4195 13.2C25.4195 11.65 26.3945 10.525 27.7945 10.525C29.1945 10.525 30.1695 11.65 30.1695 13.2Z" fill="#D7D7D7"/>
</svg>
