<svg width="48" height="18" viewBox="0 0 48 18" fill="none" xmlns="http://www.w3.org/2000/svg">
<path d="M0.495801 17H12.2458V14.8H4.4708C9.0458 11.275 12.1708 8.35 12.1708 5.1C12.1708 1.775 9.3458 0.0749989 6.3458 0.0749989C4.0208 0.0749989 1.7458 0.999999 0.370801 2.725L1.8458 4.35C2.8708 3.125 4.3958 2.3 6.3708 2.3C7.9958 2.3 9.6208 3.15 9.6208 5.1C9.6208 7.725 6.7458 10.225 0.495801 15.025V17ZM15.1163 8.675C15.1163 12.8 17.0163 17.3 21.6413 17.3C26.2663 17.3 28.1663 12.8 28.1663 8.675C28.1663 4.55 26.2663 0.0749989 21.6413 0.0749989C17.0163 0.0749989 15.1163 4.55 15.1163 8.675ZM25.6163 8.675C25.6163 11.925 24.5913 15.075 21.6413 15.075C18.6913 15.075 17.6663 11.925 17.6663 8.675C17.6663 5.425 18.6913 2.3 21.6413 2.3C24.5913 2.3 25.6163 5.425 25.6163 8.675ZM30.0728 4.225C30.0728 6.55 31.6978 8.325 34.1228 8.325C36.5728 8.325 38.2228 6.55 38.2228 4.225C38.2228 1.875 36.5728 0.0749989 34.1228 0.0749989C31.6978 0.0749989 30.0728 1.875 30.0728 4.225ZM32.5478 17H34.0478L44.7228 0.324999H43.1978L32.5478 17ZM36.4978 4.225C36.4978 5.725 35.5228 6.875 34.1228 6.875C32.7478 6.875 31.7728 5.725 31.7728 4.225C31.7728 2.675 32.7478 1.55 34.1228 1.55C35.5228 1.55 36.4978 2.675 36.4978 4.225ZM38.8978 13.2C38.8978 15.525 40.5478 17.3 42.9728 17.3C45.3978 17.3 47.0478 15.525 47.0478 13.2C47.0478 10.85 45.3978 9.05 42.9728 9.05C40.5478 9.05 38.8978 10.85 38.8978 13.2ZM45.3478 13.2C45.3478 14.725 44.3728 15.85 42.9728 15.85C41.5728 15.85 40.5978 14.725 40.5978 13.2C40.5978 11.65 41.5728 10.525 42.9728 10.525C44.3728 10.525 45.3478 11.65 45.3478 13.2Z" fill="#D7D7D7"/>
</svg>
