<svg width="11" height="34" viewBox="0 0 11 34" fill="none" xmlns="http://www.w3.org/2000/svg">
<path d="M9.71787 9.71092C8.58024 4.71943 5.71909 0.656727 5.32488 5.66162e-05C4.69909 0.930176 2.40892 4.51356 1.24206 8.47983C-0.032534 12.919 -0.224094 16.8559 0.209096 20.7173C0.639215 24.594 2.27717 28.5789 2.27717 28.5789C3.14734 30.6553 4.45212 32.9002 5.30204 33.9999C6.55177 32.3839 9.42524 27.5651 10.327 21.279C10.8288 17.7697 10.854 14.7024 9.71787 9.71092ZM5.28518 32.7486C4.72457 31.6949 3.85431 29.6948 3.77541 26.5816C3.75759 23.5906 4.96564 21.013 5.31843 20.4794C5.63163 21.0138 6.66695 23.2584 6.78725 26.3258C6.86783 29.3169 5.86674 31.6811 5.28518 32.7486ZM9.37537 18.18C9.33019 20.0875 9.09962 22.1015 8.80726 23.3067C8.91389 21.2315 8.66787 18.3165 8.19297 16.0268C7.71804 13.7525 6.37076 9.93577 5.29352 8.17953C4.2948 9.85695 3.06292 13.1517 2.41643 16.0046C1.76688 18.8575 1.74431 22.3215 1.74305 23.3592C1.57263 22.4892 1.14773 19.3603 1.27248 16.2321C1.37665 13.6532 1.98617 10.9834 2.31989 9.763C3.59251 5.69005 5.03024 3.08228 5.3002 2.67057C5.56916 3.08293 7.37187 6.30503 8.30477 9.67869C9.23308 13.0523 9.41747 16.2877 9.37537 18.18Z" fill="#999999" fill-opacity="0.3"/>
</svg>
